<svg width="218" height="40" viewBox="0 0 218 40" fill="none" xmlns="http://www.w3.org/2000/svg">
<path fill-rule="evenodd" clip-rule="evenodd" d="M19.87 4.567L22.507 0L29.983 4.317L27.347 8.883C26.884 9.684 27.577 10.658 28.485 10.483L33.537 9.508L35.172 17.985L30.12 18.959C21.948 20.535 15.709 11.775 19.87 4.567Z" fill="#166CC7"/>
<path fill-rule="evenodd" clip-rule="evenodd" d="M15.302 35.433L12.665 40L5.188 35.684L7.825 31.117C8.288 30.316 7.595 29.342 6.686 29.517L1.635 30.491L0 22.015L5.052 21.041C13.224 19.465 19.462 28.225 15.302 35.433Z" fill="#00D5AE"/>
<path fill-rule="evenodd" clip-rule="evenodd" d="M15.53 4.567L12.894 0L5.41698 4.317L8.05398 8.883C8.51598 9.684 7.82398 10.658 6.91498 10.483L1.86298 9.508L0.22998 17.985L5.28098 18.959C13.454 20.535 19.693 11.775 15.531 4.567H15.53Z" fill="#00B8D3"/>
<path fill-rule="evenodd" clip-rule="evenodd" d="M19.65 35.433L22.285 40L29.762 35.684L27.125 31.117C26.663 30.316 27.355 29.342 28.264 29.517L33.315 30.491L34.95 22.015L29.898 21.041C21.726 19.465 15.488 28.225 19.648 35.433H19.65Z" fill="#8AEC85"/>
<path d="M54.9296 10.1295V21.747C54.9296 23.0199 55.2607 23.997 55.9227 24.6783C56.5848 25.3416 57.5152 25.6733 58.714 25.6733C59.9307 25.6733 60.8701 25.3416 61.5322 24.6783C62.1942 23.997 62.5252 23.0199 62.5252 21.747V10.1295H66.3096V21.7201C66.3096 23.3157 65.9607 24.6693 65.2629 25.7809C64.5829 26.8745 63.6614 27.6992 62.4984 28.255C61.3532 28.8108 60.0739 29.0886 58.6603 29.0886C57.2647 29.0886 55.9943 28.8108 54.8491 28.255C53.7219 27.6992 52.8272 26.8745 52.1652 25.7809C51.5031 24.6693 51.1721 23.3157 51.1721 21.7201V10.1295H54.9296Z" fill="#06192C"/>
<path d="M76.7036 29.1424C75.4869 29.1424 74.3954 28.9273 73.4292 28.497C72.463 28.0488 71.6936 27.4482 71.121 26.6952C70.5663 25.9422 70.2621 25.1086 70.2084 24.1942H73.9928C74.0644 24.7679 74.3417 25.243 74.8248 25.6195C75.3258 25.996 75.9432 26.1843 76.6768 26.1843C77.3925 26.1843 77.9472 26.0408 78.3408 25.754C78.7524 25.4671 78.9581 25.0996 78.9581 24.6514C78.9581 24.1673 78.7076 23.8088 78.2066 23.5757C77.7235 23.3247 76.9452 23.0558 75.8716 22.7689C74.7622 22.5 73.8497 22.2221 73.134 21.9353C72.4361 21.6484 71.8278 21.2092 71.3089 20.6175C70.8079 20.0259 70.5574 19.2281 70.5574 18.2241C70.5574 17.3994 70.79 16.6464 71.2552 15.9651C71.7383 15.2839 72.4182 14.746 73.295 14.3516C74.1896 13.9572 75.2364 13.76 76.4352 13.76C78.2066 13.76 79.6202 14.2082 80.6759 15.1046C81.7315 15.9831 82.3131 17.1753 82.4204 18.6813H78.8239C78.7702 18.0896 78.5197 17.6235 78.0724 17.2829C77.643 16.9243 77.0615 16.745 76.3279 16.745C75.6479 16.745 75.1201 16.8705 74.7443 17.1215C74.3865 17.3725 74.2075 17.7221 74.2075 18.1703C74.2075 18.6723 74.458 19.0578 74.959 19.3267C75.46 19.5777 76.2384 19.8377 77.2941 20.1066C78.3677 20.3755 79.2534 20.6534 79.9512 20.9402C80.649 21.2271 81.2484 21.6753 81.7494 22.2849C82.2683 22.8765 82.5367 23.6653 82.5546 24.6514C82.5546 25.512 82.3131 26.2829 81.83 26.9641C81.3647 27.6454 80.6848 28.1833 79.7901 28.5777C78.9134 28.9542 77.8845 29.1424 76.7036 29.1424Z" fill="#06192C"/>
<path d="M100.535 21.1285C100.535 21.6663 100.499 22.1504 100.428 22.5807H89.5576C89.6471 23.6564 90.0228 24.499 90.6849 25.1086C91.3469 25.7181 92.1611 26.0229 93.1273 26.0229C94.5229 26.0229 95.516 25.4223 96.1065 24.2211H100.159C99.7298 25.6554 98.9067 26.8386 97.69 27.7709C96.4733 28.6853 94.9792 29.1424 93.2078 29.1424C91.7764 29.1424 90.4881 28.8287 89.3429 28.2012C88.2157 27.5558 87.33 26.6504 86.6858 25.4851C86.0595 24.3197 85.7464 22.9751 85.7464 21.4512C85.7464 19.9094 86.0595 18.5558 86.6858 17.3904C87.3121 16.2251 88.1888 15.3287 89.3161 14.7012C90.4433 14.0737 91.7406 13.76 93.2078 13.76C94.6213 13.76 95.8828 14.0647 96.9922 14.6743C98.1194 15.2839 98.9872 16.1534 99.5956 17.2829C100.222 18.3944 100.535 19.6763 100.535 21.1285ZM96.6433 20.0528C96.6254 19.0847 96.2764 18.3137 95.5965 17.74C94.9166 17.1484 94.0846 16.8526 93.1004 16.8526C92.17 16.8526 91.3827 17.1394 90.7386 17.7131C90.1123 18.2689 89.7276 19.0488 89.5845 20.0528H96.6433Z" fill="#06192C"/>
<path d="M108.109 16.3147C108.592 15.5259 109.218 14.9074 109.988 14.4592C110.775 14.011 111.669 13.7869 112.671 13.7869V17.74H111.678C110.497 17.74 109.603 18.0179 108.994 18.5737C108.404 19.1295 108.109 20.0976 108.109 21.4781V28.9004H104.351V14.002H108.109V16.3147Z" fill="#06192C"/>
<path d="M122.744 29.0886C121.438 29.0886 120.257 28.8645 119.201 28.4163C118.164 27.9681 117.341 27.3227 116.732 26.4801C116.124 25.6375 115.811 24.6424 115.793 23.495H119.819C119.872 24.2659 120.141 24.8755 120.624 25.3237C121.125 25.7719 121.805 25.996 122.664 25.996C123.54 25.996 124.229 25.7898 124.73 25.3775C125.231 24.9472 125.482 24.3914 125.482 23.7102C125.482 23.1544 125.312 22.6972 124.972 22.3386C124.632 21.9801 124.203 21.7022 123.684 21.505C123.183 21.2898 122.485 21.0568 121.59 20.8058C120.373 20.4472 119.38 20.0976 118.611 19.757C117.859 19.3984 117.206 18.8695 116.652 18.1703C116.115 17.4532 115.846 16.503 115.846 15.3197C115.846 14.2082 116.124 13.24 116.679 12.4153C117.233 11.5906 118.012 10.9631 119.014 10.5329C120.016 10.0847 121.161 9.86056 122.449 9.86056C124.381 9.86056 125.947 10.3357 127.146 11.2859C128.363 12.2181 129.034 13.5269 129.159 15.2122H125.026C124.99 14.5667 124.712 14.0378 124.194 13.6255C123.693 13.1952 123.022 12.9801 122.181 12.9801C121.447 12.9801 120.857 13.1683 120.409 13.5448C119.98 13.9213 119.765 14.4681 119.765 15.1853C119.765 15.6873 119.926 16.1086 120.248 16.4492C120.588 16.7719 121 17.0408 121.483 17.256C121.984 17.4532 122.682 17.6863 123.576 17.9552C124.793 18.3137 125.786 18.6723 126.555 19.0309C127.325 19.3894 127.987 19.9273 128.542 20.6444C129.096 21.3616 129.374 22.3028 129.374 23.4681C129.374 24.4721 129.114 25.4044 128.595 26.2649C128.076 27.1255 127.316 27.8157 126.314 28.3357C125.312 28.8377 124.122 29.0886 122.744 29.0886Z" fill="#06192C"/>
<path d="M137.462 16.1534C137.945 15.4721 138.607 14.9074 139.448 14.4592C140.307 13.993 141.282 13.76 142.374 13.76C143.644 13.76 144.79 14.0737 145.809 14.7012C146.847 15.3287 147.661 16.2251 148.252 17.3904C148.86 18.5378 149.164 19.8735 149.164 21.3974C149.164 22.9213 148.86 24.2749 148.252 25.4582C147.661 26.6235 146.847 27.5289 145.809 28.1743C144.79 28.8197 143.644 29.1424 142.374 29.1424C141.282 29.1424 140.316 28.9183 139.475 28.4701C138.652 28.0219 137.981 27.4572 137.462 26.7759V36H133.705V14.002H137.462V16.1534ZM145.326 21.3974C145.326 20.501 145.138 19.7301 144.763 19.0847C144.405 18.4213 143.922 17.9193 143.313 17.5787C142.723 17.238 142.079 17.0677 141.381 17.0677C140.701 17.0677 140.057 17.247 139.448 17.6056C138.858 17.9462 138.375 18.4482 137.999 19.1116C137.641 19.7749 137.462 20.5548 137.462 21.4512C137.462 22.3476 137.641 23.1275 137.999 23.7908C138.375 24.4542 138.858 24.9651 139.448 25.3237C140.057 25.6643 140.701 25.8347 141.381 25.8347C142.079 25.8347 142.723 25.6554 143.313 25.2968C143.922 24.9382 144.405 24.4273 144.763 23.7639C145.138 23.1006 145.326 22.3118 145.326 21.3974Z" fill="#06192C"/>
<path d="M161.342 13.7869C162.47 13.7869 163.472 14.0378 164.348 14.5398C165.225 15.0239 165.905 15.75 166.388 16.7181C166.889 17.6683 167.14 18.8157 167.14 20.1604V28.9004H163.382V20.6713C163.382 19.488 163.087 18.5827 162.496 17.9552C161.906 17.3098 161.101 16.9871 160.081 16.9871C159.043 16.9871 158.22 17.3098 157.612 17.9552C157.021 18.5827 156.726 19.488 156.726 20.6713V28.9004H152.968V9H156.726V15.8576C157.209 15.2122 157.853 14.7102 158.658 14.3516C159.464 13.9751 160.358 13.7869 161.342 13.7869Z" fill="#06192C"/>
<path d="M185.609 21.1285C185.609 21.6663 185.573 22.1504 185.501 22.5807H174.631C174.721 23.6564 175.097 24.499 175.759 25.1086C176.421 25.7181 177.235 26.0229 178.201 26.0229C179.597 26.0229 180.59 25.4223 181.18 24.2211H185.233C184.804 25.6554 183.981 26.8386 182.764 27.7709C181.547 28.6853 180.053 29.1424 178.282 29.1424C176.85 29.1424 175.562 28.8287 174.417 28.2012C173.29 27.5558 172.404 26.6504 171.76 25.4851C171.133 24.3197 170.82 22.9751 170.82 21.4512C170.82 19.9094 171.133 18.5558 171.76 17.3904C172.386 16.2251 173.263 15.3287 174.39 14.7012C175.517 14.0737 176.814 13.76 178.282 13.76C179.695 13.76 180.957 14.0647 182.066 14.6743C183.193 15.2839 184.061 16.1534 184.669 17.2829C185.296 18.3944 185.609 19.6763 185.609 21.1285ZM181.717 20.0528C181.699 19.0847 181.35 18.3137 180.67 17.74C179.99 17.1484 179.158 16.8526 178.174 16.8526C177.244 16.8526 176.457 17.1394 175.812 17.7131C175.186 18.2689 174.801 19.0488 174.658 20.0528H181.717Z" fill="#06192C"/>
<path d="M193.183 16.3147C193.666 15.5259 194.292 14.9074 195.061 14.4592C195.849 14.011 196.743 13.7869 197.745 13.7869V17.74H196.752C195.571 17.74 194.677 18.0179 194.068 18.5737C193.478 19.1295 193.183 20.0976 193.183 21.4781V28.9004H189.425V14.002H193.183V16.3147Z" fill="#06192C"/>
<path d="M215.172 21.1285C215.172 21.6663 215.136 22.1504 215.065 22.5807H204.195C204.284 23.6564 204.66 24.499 205.322 25.1086C205.984 25.7181 206.798 26.0229 207.764 26.0229C209.16 26.0229 210.153 25.4223 210.744 24.2211H214.796C214.367 25.6554 213.544 26.8386 212.327 27.7709C211.11 28.6853 209.616 29.1424 207.845 29.1424C206.413 29.1424 205.125 28.8287 203.98 28.2012C202.853 27.5558 201.967 26.6504 201.323 25.4851C200.697 24.3197 200.384 22.9751 200.384 21.4512C200.384 19.9094 200.697 18.5558 201.323 17.3904C201.949 16.2251 202.826 15.3287 203.953 14.7012C205.08 14.0737 206.378 13.76 207.845 13.76C209.258 13.76 210.52 14.0647 211.629 14.6743C212.757 15.2839 213.624 16.1534 214.233 17.2829C214.859 18.3944 215.172 19.6763 215.172 21.1285ZM211.28 20.0528C211.262 19.0847 210.914 18.3137 210.234 17.74C209.554 17.1484 208.722 16.8526 207.738 16.8526C206.807 16.8526 206.02 17.1394 205.376 17.7131C204.749 18.2689 204.365 19.0488 204.222 20.0528H211.28Z" fill="#06192C"/>
</svg>
